#N canvas 76 22 1338 819 10;
#X obj 283 242 vcf~;
#X obj 93 218 fft~;
#X obj 46 26 adc~;
#X obj 198 724 dac~;
#X obj 170 690 /~ 64;
#X obj 36 84 rfft~;
#X obj 153 661 rifft~;
#X obj 319 246 block~;
#X obj 307 213 stack~;
#X obj 255 388 osc~;
#X obj 236 317 phasor~;
#X obj 180 230 hip~;
#X obj 227 231 biquad~;
#X obj 257 106 array define fft_real;
#X obj 137 152 array define fft_imagine;
#X obj 255 68 array set;
#X floatatom 214 48 5 0 0 0 - - -, f 5;
#X obj 175 45 + 0;
#X msg 169 21 1;
#N canvas 0 22 450 278 (subpatch) 0;
#X array array1 1024 float 2;
#X coords 0 1 1024 -1 200 140 1;
#X restore 386 18 graph;
#X obj 95 65 tabwrite~ array1;
#X obj 106 10 bng 15 250 50 0 empty empty empty 17 7 0 10 -262144 -1
-1;
#N canvas 0 22 450 278 (subpatch) 0;
#X array array2 41000 float 2;
#X coords 0 1 41000 -1 200 140 1;
#X restore 387 176 graph;
#X obj 119 130 tabwrite~ array2;
#N canvas 0 22 450 278 (subpatch) 0;
#X array array3 41000 float 2;
#X coords 0 1 41000 -1 200 140 1;
#X restore 382 337 graph;
#X obj 130 108 tabwrite~ array3;
#X obj 104 28 t b b b;
#X msg 236 10 start;
#X msg 301 15 stop;
#X obj 203 75 t a a;
#X obj 72 320 tabplay~ array2;
#X obj 77 373 tabplay~ array3;
#X obj 21 226 bng 15 250 50 0 empty empty empty 17 7 0 10 -262144 -1
-1;
#X obj 28 289 t a a;
#X msg 18 266 bang;
#X obj 417 512 del;
#X obj 19 437 delwrite~ fft_rdelay 4000;
#X obj 177 437 delwrite~ fft_idelay 4000;
#X obj 55 493 delread~ fft_rdelay;
#X obj 193 493 delread~ fft_idelay;
#X floatatom 152 466 5 0 0 0 - - -, f 5;
#X obj 37 737 tabreceive~ \$0-gain;
#N canvas 0 22 450 278 (subpatch) 0;
#X array \$0-gain 64 float 2;
#X coords 0 1 64 0 200 140 1 0 0;
#X restore 385 568 graph;
#X obj 216 530 tabreceive~ \$0-gain;
#X obj 150 590 *~;
#X obj 80 576 *~;
#X obj 284 652 abs~;
#X obj 277 605 -~ 1;
#X obj 280 697 *~;
#X obj 317 696 *~;
#X obj 199 630 +~;
#X obj 226 631 +~;
#X obj 636 86 delwrite~ audio_delay 4000;
#X obj 643 224 delread~ audio_delay 200;
#X obj 643 253 rfft~;
#X obj 643 297 *~;
#X obj 671 303 *~;
#X obj 625 421 *~;
#X obj 667 423 *~;
#X obj 629 497 rifft~;
#X obj 718 500 rifft~;
#X obj 688 549 +~;
#X obj 692 588 /~ 64;
#X floatatom 659 190 5 0 0 0 - - -, f 5;
#X obj 892 388 sig~;
#X floatatom 888 354 5 0 0 0 - - -, f 5;
#X floatatom 930 390 5 0 0 0 - - -, f 5;
#X obj 857 588 vcf~ 100;
#X obj 1177 170 vcf~ 100;
#X obj 1177 148 vcf~ 100;
#X obj 1177 126 vcf~ 100;
#X obj 1177 104 vcf~ 100;
#X obj 853 626 vcf~ 100;
#X obj 957 83 delread~ audio_delay;
#X obj 957 105 delread~ audio_delay;
#X obj 957 127 delread~ audio_delay;
#X floatatom 865 65 5 0 0 0 - - -, f 5;
#X obj 865 106 + 100;
#X obj 865 128 + 100;
#X obj 865 150 + 100;
#X obj 865 172 + 100;
#X obj 865 194 + 100;
#X obj 865 84 + 100;
#X obj 957 149 delread~ audio_delay;
#X obj 957 171 delread~ audio_delay;
#X obj 957 193 delread~ audio_delay;
#X obj 957 216 delread~ audio_delay;
#X obj 1177 237 vcf~ 100;
#X obj 1177 215 vcf~ 100;
#X obj 1177 193 vcf~ 100;
#X floatatom 1089 58 5 0 0 0 - - -, f 5;
#X obj 1089 76 sig~;
#X obj 1089 98 +~ 100;
#X obj 1089 120 +~ 100;
#X obj 1089 142 +~ 100;
#X obj 1089 164 +~ 100;
#X obj 1089 186 +~ 100;
#X obj 1089 208 +~ 100;
#X obj 865 42 loadbang;
#X obj 1241 146 +~;
#X obj 1241 168 +~;
#X obj 1241 190 +~;
#X obj 1241 212 +~;
#X obj 1241 234 +~;
#X obj 1241 256 +~;
#X floatatom 1240 51 5 0 0 0 - - -, f 5;
#X floatatom 921 64 5 0 0 0 - - -, f 5;
#X obj 840 44 bng 15 250 50 0 empty empty empty 17 7 0 10 -262144 -1
-1;
#X floatatom 1140 58 5 0 0 0 - - -, f 5;
#X obj 1036 366 *~;
#X obj 1098 355 vsl 15 128 0 20 0 0 empty empty empty 0 -9 0 10 -262144
-1 -1 12700 1;
#X obj 1284 462 +~;
#X obj 1284 484 +~;
#X obj 1284 506 +~;
#X obj 1284 528 +~;
#X obj 1284 550 +~;
#X obj 1284 572 +~;
#X floatatom 1283 367 5 0 0 0 - - -, f 5;
#X obj 1220 420 bp~ 100;
#X obj 1220 442 bp~ 100;
#X obj 1220 464 bp~ 100;
#X obj 1220 486 bp~ 100;
#X obj 1220 509 bp~ 100;
#X obj 1220 531 bp~ 100;
#X obj 1220 553 bp~ 100;
#X floatatom 1159 398 5 0 0 0 - - -, f 5;
#X obj 1159 417 + 100;
#X obj 1159 439 + 100;
#X obj 1159 461 + 100;
#X obj 1159 483 + 100;
#X obj 1159 505 + 100;
#X obj 1159 527 + 100;
#X floatatom 1211 397 5 0 0 0 - - -, f 5;
#X obj 1159 378 bng 15 250 50 0 empty empty empty 17 7 0 10 -262144
-1 -1;
#X obj 1061 635 *~;
#X obj 1127 626 vsl 15 128 0 20 0 0 empty empty empty 0 -9 0 10 -262144
-1 -1 300 1;
#X obj 988 434 osc~ 440;
#X connect 2 0 5 0;
#X connect 2 0 20 0;
#X connect 2 0 52 0;
#X connect 5 0 23 0;
#X connect 5 0 36 0;
#X connect 5 0 48 0;
#X connect 5 0 57 0;
#X connect 5 1 25 0;
#X connect 5 1 37 0;
#X connect 5 1 49 0;
#X connect 5 1 58 0;
#X connect 6 0 4 0;
#X connect 16 0 17 1;
#X connect 17 0 16 0;
#X connect 18 0 17 0;
#X connect 21 0 26 0;
#X connect 26 1 28 0;
#X connect 26 2 27 0;
#X connect 27 0 20 0;
#X connect 27 0 29 0;
#X connect 28 0 20 0;
#X connect 29 0 23 0;
#X connect 29 1 25 0;
#X connect 32 0 34 0;
#X connect 33 0 30 0;
#X connect 33 1 31 0;
#X connect 34 0 33 0;
#X connect 38 0 45 0;
#X connect 38 0 6 0;
#X connect 39 0 44 0;
#X connect 39 0 6 1;
#X connect 40 0 38 0;
#X connect 40 0 39 0;
#X connect 43 0 44 1;
#X connect 43 0 45 1;
#X connect 43 0 47 0;
#X connect 43 0 55 1;
#X connect 43 0 56 1;
#X connect 44 0 51 1;
#X connect 45 0 50 1;
#X connect 46 0 48 1;
#X connect 46 0 49 1;
#X connect 46 0 57 1;
#X connect 46 0 58 1;
#X connect 47 0 46 0;
#X connect 48 0 50 0;
#X connect 49 0 51 0;
#X connect 53 0 54 0;
#X connect 54 0 55 0;
#X connect 54 1 56 0;
#X connect 55 0 60 0;
#X connect 56 0 60 1;
#X connect 57 0 59 0;
#X connect 58 0 59 1;
#X connect 59 0 61 0;
#X connect 60 0 61 1;
#X connect 61 0 62 0;
#X connect 63 0 53 0;
#X connect 64 0 67 1;
#X connect 65 0 64 0;
#X connect 66 0 67 2;
#X connect 66 0 72 2;
#X connect 68 0 101 1;
#X connect 69 0 100 1;
#X connect 70 0 99 0;
#X connect 71 0 99 1;
#X connect 73 0 71 0;
#X connect 73 0 118 0;
#X connect 74 0 70 0;
#X connect 74 0 119 0;
#X connect 75 0 69 0;
#X connect 75 0 120 0;
#X connect 76 0 82 0;
#X connect 76 0 73 0;
#X connect 77 0 78 0;
#X connect 77 0 75 0;
#X connect 78 0 79 0;
#X connect 78 0 83 0;
#X connect 79 0 80 0;
#X connect 79 0 84 0;
#X connect 80 0 81 0;
#X connect 80 0 85 0;
#X connect 81 0 86 0;
#X connect 82 0 77 0;
#X connect 82 0 74 0;
#X connect 83 0 68 0;
#X connect 83 0 121 0;
#X connect 84 0 89 0;
#X connect 84 0 122 0;
#X connect 85 0 88 0;
#X connect 85 0 123 0;
#X connect 86 0 87 0;
#X connect 86 0 124 0;
#X connect 87 0 104 1;
#X connect 88 0 103 1;
#X connect 89 0 102 1;
#X connect 90 0 91 0;
#X connect 91 0 92 0;
#X connect 91 0 71 1;
#X connect 92 0 93 0;
#X connect 92 0 70 1;
#X connect 93 0 94 0;
#X connect 93 0 69 1;
#X connect 94 0 95 0;
#X connect 94 0 68 1;
#X connect 95 0 96 0;
#X connect 95 0 89 1;
#X connect 96 0 97 0;
#X connect 96 0 88 1;
#X connect 97 0 87 1;
#X connect 98 0 76 0;
#X connect 99 0 100 0;
#X connect 100 0 101 0;
#X connect 101 0 102 0;
#X connect 102 0 103 0;
#X connect 103 0 104 0;
#X connect 104 0 109 0;
#X connect 105 0 71 2;
#X connect 105 0 70 2;
#X connect 105 0 69 2;
#X connect 105 0 68 2;
#X connect 105 0 89 2;
#X connect 105 0 88 2;
#X connect 105 0 87 2;
#X connect 106 0 82 1;
#X connect 106 0 77 1;
#X connect 106 0 78 1;
#X connect 106 0 79 1;
#X connect 106 0 80 1;
#X connect 106 0 81 1;
#X connect 107 0 76 0;
#X connect 108 0 92 1;
#X connect 108 0 93 1;
#X connect 108 0 94 1;
#X connect 108 0 95 1;
#X connect 108 0 96 1;
#X connect 108 0 97 1;
#X connect 110 0 109 1;
#X connect 111 0 112 0;
#X connect 112 0 113 0;
#X connect 113 0 114 0;
#X connect 114 0 115 0;
#X connect 115 0 116 0;
#X connect 116 0 134 0;
#X connect 117 0 118 2;
#X connect 117 0 119 2;
#X connect 117 0 120 2;
#X connect 117 0 121 2;
#X connect 117 0 122 2;
#X connect 117 0 123 2;
#X connect 117 0 124 2;
#X connect 118 0 111 1;
#X connect 119 0 111 0;
#X connect 120 0 112 1;
#X connect 121 0 113 1;
#X connect 122 0 114 1;
#X connect 123 0 115 1;
#X connect 124 0 116 1;
#X connect 125 0 126 0;
#X connect 125 0 118 1;
#X connect 126 0 127 0;
#X connect 126 0 119 1;
#X connect 127 0 128 0;
#X connect 127 0 120 1;
#X connect 128 0 129 0;
#X connect 128 0 121 1;
#X connect 129 0 130 0;
#X connect 129 0 122 1;
#X connect 130 0 123 1;
#X connect 130 0 131 0;
#X connect 131 0 124 1;
#X connect 132 0 126 1;
#X connect 132 0 127 1;
#X connect 132 0 128 1;
#X connect 132 0 129 1;
#X connect 132 0 130 1;
#X connect 132 0 131 1;
#X connect 133 0 125 0;
#X connect 134 0 3 0;
#X connect 135 0 134 1;
